<?xml version="1.0" encoding="UTF-8" standalone="no"?>
<svg
   height="24px"
   viewBox="0 0 24 24"
   width="24px"
   fill="#FFFFFF"
   version="1.1"
   id="svg6"
   xmlns="http://www.w3.org/2000/svg"
   xmlns:svg="http://www.w3.org/2000/svg">
  <defs
     id="defs10" />
  <path
     d="M 12.65937,-4.9428689 29.712628,11.944593 12.825166,28.997851 -4.2280923,12.110389 Z"
     fill="none"
     id="path2" />
  <path
     d="m 17.667778,7.0536245 2.814577,-2.8422097 -7.070983,0.034541 0.03454,7.0709842 2.814577,-2.8422104 c 2.351929,2.3290614 2.370512,6.1332514 0.04145,8.4851794 -2.329062,2.351929 -6.133251,2.370511 -8.4851799,0.04145 C 5.4648296,14.672295 5.4462467,10.868106 7.7753092,8.5161782 L 6.3542044,7.1088897 C 3.2440967,10.249531 3.2688279,15.312355 6.4094696,18.422463 9.5501113,21.53257 14.612935,21.507839 17.723043,18.367203 20.833151,15.226561 20.80842,10.163737 17.667773,7.0536295 Z"
     id="path4" />
  <path
     d="M 6.3791211,7.084166 3.586745,4.2201416 10.657246,4.3097018 10.567686,11.380202 7.7753092,8.5161782 C 5.4053295,10.826869 5.3571447,14.630797 7.6678361,17.000778 c 2.3106921,2.36998 6.1146219,2.418164 8.4846019,0.107473 2.369979,-2.310691 2.418742,-6.263542 0.108051,-8.6335214 l 1.431433,-1.247267 C 20.777498,10.39221 20.713372,15.454688 17.548626,18.540263 14.38388,21.625839 9.3214,21.561713 6.2358246,18.396967 3.1502471,15.232219 3.2143737,10.16974 6.3791211,7.084166 Z"
     id="path4-5" />
</svg>
